<?xml version="1.0" encoding="UTF-8"?>
<svg width="120px" height="120px" viewBox="0 0 120 120" version="1.1" xmlns="http://www.w3.org/2000/svg" xmlns:xlink="http://www.w3.org/1999/xlink">
    <title>编组 2</title>
    <g id="页面-1" stroke="none" stroke-width="1" fill="none" fill-rule="evenodd">
        <g id="2" transform="translate(-857.000000, -274.000000)">
            <g id="编组-2" transform="translate(857.000000, 274.000000)">
                <path d="M4.31253692,83.3553391 L22.3125369,83.3553391 C31.1490929,83.3553391 38.3125369,90.5187831 38.3125369,99.3553391 C38.3125369,108.191895 31.1490929,115.355339 22.3125369,115.355339 L21.3125369,115.355339 C11.9236962,115.355339 4.31253692,107.74418 4.31253692,98.3553391 L4.31253692,83.3553391 L4.31253692,83.3553391 Z" id="矩形备份-29" fill="#FFDB4A" transform="translate(21.312537, 99.355339) rotate(-270.000000) translate(-21.312537, -99.355339) "></path>
                <path d="M37.3125369,82.3553391 L37.3125369,92.8553391 C37.3125369,98.1020442 33.059242,102.355339 27.8125369,102.355339 C22.5658318,102.355339 18.3125369,98.1020442 18.3125369,92.8553391 L18.3125369,92.3553391 C18.3125369,86.8324916 22.7896894,82.3553391 28.3125369,82.3553391 L37.3125369,82.3553391 Z" id="矩形备份-29" fill="#FFDB4A" style="mix-blend-mode: multiply;"></path>
                <path d="M27.6764979,64 L72.9313319,18.745166 C85.8727907,5.80370728 102.977706,-0.436769686 119.93447,0.0237351036 C120.397878,16.9821343 114.157413,34.087627 101.215603,47.0294373 L55.9607692,92.2842712 L27.6764979,64 Z" id="路径" fill="#26CDC7"></path>
                <path d="M10.7059352,47.0294373 C6.39306391,42.716566 2.82441885,37.9412918 3.41060513e-13,32.8631986 C9.23399098,27.6944289 19.8790098,24.7487373 31.2120319,24.7487373 L95.2120319,24.7487373 L95.2120319,88.7487373 C95.2120319,100.081759 92.2663403,110.726778 87.0988373,119.959914 C82.0200486,117.136777 77.2444612,113.567963 72.9313319,109.254834 L10.7059352,47.0294373 Z" id="路径" fill="#26CDC7" opacity="0.699999988"></path>
            </g>
        </g>
    </g>
</svg>